<svg class="railroad" viewBox="0 0 371 207" xmlns="http://www.w3.org/2000/svg" xmlns:xlink="http://www.w3.org/1999/xlink">
<style type="text/css">

svg.railroad {
  background-color: rgba(238, 238, 238, .91);
  background-size: 15px 15px;
  background-image: linear-gradient(to right, rgba(25, 25, 225, .65) 1px, transparent 1px),
                    linear-gradient(to bottom, rgba(25, 25, 225, .65) 1px, transparent 1px);
}

svg.railroad path {
  stroke-width: 3px;
  stroke: black;
  fill: transparent;
}

svg.railroad .debug {
  stroke-width: 1px;
  stroke: red;
}

svg.railroad text {
  font: 14px monospace;
  text-anchor: middle;
}

svg.railroad .nonterminal text {
  font-weight: bold;
}

svg.railroad text.comment {
  font: italic 12px monospace;
}

svg.railroad rect {
  stroke-width: 3px;
  stroke: black;
  fill:rgba(0, 0, 90, 0%);
}

svg.railroad .terminal rect {
  fill: aquamarine;  
}

svg.railroad .nonterminal rect {
  fill: orange;  
}

svg.railroad g.labeledbox &gt; rect {
  border-radius: 25px;
  border: 2px solid #73AD21;
  stroke-width: 1.5px;
  stroke: grey;
  stroke-dasharray: 5px;
  fill:rgba(150, 150, 150, 25%);
}

</style>
<g class="sequence">
<path d=" M 10 21 a 5 5 0 0 1 5 -5 a 5 5 0 0 1 5 5 a 5 5 0 0 1 -5 5 a 5 5 0 0 1 -5 -5 m 10 0 h 5"/>
<g class="choice">
<path d=" M 35 21 h 24 m 132 0 h 140 m -67 0 l -5 -5 m 0 10 l 5 -5 m 67 0"/>
<g class="sequence">
<g class="nonterminal">
<rect height="22" width="132" x="59" y="10"/>
<text x="125" y="26">
BlockStatement</text>
</g>
</g>
<path d=" M 35 21 a 12 12 0 0 1 12 12 v 9 m 272 0 v -9 a 12 12 0 0 1 12 -12"/>
<path d=" M 47 42 v 33 m 272 0 v -33"/>
<path d=" M 47 75 v 33 m 272 0 v -33"/>
<path d=" M 47 108 v 33 m 272 0 v -33"/>
<path d=" M 47 141 v 33 m 272 0 v -33"/>
<path d=" M 47 42 v 0 a 12 12 0 0 0 12 12 m 194 0 h 54 m -24 0 l -5 -5 m 0 10 l 5 -5 m 24 0 a 12 12 0 0 0 12 -12 v 0"/>
<g class="sequence">
<g class="choice">
<path d=" M 59 54 h 0 m 140 0 h 0"/>
<g class="nonterminal">
<rect height="22" width="140" x="59" y="43"/>
<text x="129" y="59">
SimpleStatement</text>
</g>
</g>
<g class="terminal">
<rect height="22" rx="10" ry="10" width="44" x="209" y="43"/>
<text x="231" y="59">
&quot;;&quot;</text>
</g>
<path d=" M 199 54 h 10"/>
</g>
<path d=" M 47 75 v 0 a 12 12 0 0 0 12 12 m 154 0 h 94 m -44 0 l -5 -5 m 0 10 l 5 -5 m 44 0 a 12 12 0 0 0 12 -12 v 0"/>
<g class="sequence">
<g class="terminal">
<rect height="22" rx="10" ry="10" width="100" x="59" y="76"/>
<text x="109" y="92">
&quot;continue&quot;</text>
</g>
<g class="terminal">
<rect height="22" rx="10" ry="10" width="44" x="169" y="76"/>
<text x="191" y="92">
&quot;;&quot;</text>
</g>
<path d=" M 159 87 h 10"/>
</g>
<path d=" M 47 108 v 0 a 12 12 0 0 0 12 12 m 130 0 h 118 m -56 0 l -5 -5 m 0 10 l 5 -5 m 56 0 a 12 12 0 0 0 12 -12 v 0"/>
<g class="sequence">
<g class="terminal">
<rect height="22" rx="10" ry="10" width="76" x="59" y="109"/>
<text x="97" y="125">
&quot;break&quot;</text>
</g>
<g class="terminal">
<rect height="22" rx="10" ry="10" width="44" x="145" y="109"/>
<text x="167" y="125">
&quot;;&quot;</text>
</g>
<path d=" M 135 120 h 10"/>
</g>
<path d=" M 47 141 v 0 a 12 12 0 0 0 12 12 m 138 0 h 110 m -52 0 l -5 -5 m 0 10 l 5 -5 m 52 0 a 12 12 0 0 0 12 -12 v 0"/>
<g class="sequence">
<g class="terminal">
<rect height="22" rx="10" ry="10" width="84" x="59" y="142"/>
<text x="101" y="158">
&quot;return&quot;</text>
</g>
<g class="terminal">
<rect height="22" rx="10" ry="10" width="44" x="153" y="142"/>
<text x="175" y="158">
&quot;;&quot;</text>
</g>
<path d=" M 143 153 h 10"/>
</g>
<path d=" M 47 174 v 0 a 12 12 0 0 0 12 12 m 248 0 h 0 a 12 12 0 0 0 12 -12 v 0"/>
<g class="sequence">
<g class="terminal">
<rect height="22" rx="10" ry="10" width="84" x="59" y="175"/>
<text x="101" y="191">
&quot;return&quot;</text>
</g>
<g class="nonterminal">
<rect height="22" width="100" x="153" y="175"/>
<text x="203" y="191">
Expression</text>
</g>
<g class="terminal">
<rect height="22" rx="10" ry="10" width="44" x="263" y="175"/>
<text x="285" y="191">
&quot;;&quot;</text>
</g>
<path d=" M 143 186 h 10"/>
<path d=" M 253 186 h 10"/>
</g>
</g>
<path d=" M 341 21 h 20 m -10 -10 v 20 m 10 -20 v 20"/>
<path d=" M 25 21 h 10"/>
<path d=" M 331 21 h 10"/>
</g>
</svg>
