<svg class="railroad" viewBox="0 0 937 351" xmlns="http://www.w3.org/2000/svg" xmlns:xlink="http://www.w3.org/1999/xlink">
<style type="text/css">

svg.railroad {
  background-color: rgba(238, 238, 238, .91);
  background-size: 15px 15px;
  background-image: linear-gradient(to right, rgba(25, 25, 225, .65) 1px, transparent 1px),
                    linear-gradient(to bottom, rgba(25, 25, 225, .65) 1px, transparent 1px);
}

svg.railroad path {
  stroke-width: 3px;
  stroke: black;
  fill: transparent;
}

svg.railroad .debug {
  stroke-width: 1px;
  stroke: red;
}

svg.railroad text {
  font: 14px monospace;
  text-anchor: middle;
}

svg.railroad .nonterminal text {
  font-weight: bold;
}

svg.railroad text.comment {
  font: italic 12px monospace;
}

svg.railroad rect {
  stroke-width: 3px;
  stroke: black;
  fill:rgba(0, 0, 90, 0%);
}

svg.railroad .terminal rect {
  fill: aquamarine;  
}

svg.railroad .nonterminal rect {
  fill: orange;  
}

svg.railroad g.labeledbox &gt; rect {
  border-radius: 25px;
  border: 2px solid #73AD21;
  stroke-width: 1.5px;
  stroke: grey;
  stroke-dasharray: 5px;
  fill:rgba(150, 150, 150, 25%);
}

</style>
<g class="sequence">
<path d=" M 10 21 a 5 5 0 0 1 5 -5 a 5 5 0 0 1 5 5 a 5 5 0 0 1 -5 5 a 5 5 0 0 1 -5 -5 m 10 0 h 5"/>
<g class="choice">
<path d=" M 35 21 h 24 m 68 0 h 770 m -382 0 l -5 -5 m 0 10 l 5 -5 m 382 0"/>
<g class="sequence">
<g class="terminal">
<rect height="22" rx="10" ry="10" width="68" x="59" y="10"/>
<text x="93" y="26">
&quot;bool&quot;</text>
</g>
</g>
<path d=" M 35 21 a 12 12 0 0 1 12 12 v 9 m 838 0 v -9 a 12 12 0 0 1 12 -12"/>
<path d=" M 47 42 v 33 m 838 0 v -33"/>
<path d=" M 47 75 v 33 m 838 0 v -33"/>
<path d=" M 47 108 v 33 m 838 0 v -33"/>
<path d=" M 47 141 v 33 m 838 0 v -33"/>
<path d=" M 47 174 v 33 m 838 0 v -33"/>
<path d=" M 47 207 v 33 m 838 0 v -33"/>
<path d=" M 47 240 v 33 m 838 0 v -33"/>
<path d=" M 47 273 v 33 m 838 0 v -33"/>
<path d=" M 47 42 v 0 a 12 12 0 0 0 12 12 m 60 0 h 754 m -374 0 l -5 -5 m 0 10 l 5 -5 m 374 0 a 12 12 0 0 0 12 -12 v 0"/>
<g class="sequence">
<g class="terminal">
<rect height="22" rx="10" ry="10" width="60" x="59" y="43"/>
<text x="89" y="59">
&quot;u32&quot;</text>
</g>
</g>
<path d=" M 47 75 v 0 a 12 12 0 0 0 12 12 m 60 0 h 754 m -374 0 l -5 -5 m 0 10 l 5 -5 m 374 0 a 12 12 0 0 0 12 -12 v 0"/>
<g class="sequence">
<g class="terminal">
<rect height="22" rx="10" ry="10" width="60" x="59" y="76"/>
<text x="89" y="92">
&quot;u64&quot;</text>
</g>
</g>
<path d=" M 47 108 v 0 a 12 12 0 0 0 12 12 m 68 0 h 746 m -370 0 l -5 -5 m 0 10 l 5 -5 m 370 0 a 12 12 0 0 0 12 -12 v 0"/>
<g class="sequence">
<g class="terminal">
<rect height="22" rx="10" ry="10" width="68" x="59" y="109"/>
<text x="93" y="125">
&quot;u256&quot;</text>
</g>
</g>
<path d=" M 47 141 v 0 a 12 12 0 0 0 12 12 m 92 0 h 722 m -358 0 l -5 -5 m 0 10 l 5 -5 m 358 0 a 12 12 0 0 0 12 -12 v 0"/>
<g class="sequence">
<g class="terminal">
<rect height="22" rx="10" ry="10" width="92" x="59" y="142"/>
<text x="105" y="158">
&quot;address&quot;</text>
</g>
</g>
<path d=" M 47 174 v 0 a 12 12 0 0 0 12 12 m 76 0 h 738 m -366 0 l -5 -5 m 0 10 l 5 -5 m 366 0 a 12 12 0 0 0 12 -12 v 0"/>
<g class="sequence">
<g class="terminal">
<rect height="22" rx="10" ry="10" width="76" x="59" y="175"/>
<text x="97" y="191">
&quot;field&quot;</text>
</g>
</g>
<path d=" M 47 207 v 0 a 12 12 0 0 0 12 12 m 68 0 h 746 m -370 0 l -5 -5 m 0 10 l 5 -5 m 370 0 a 12 12 0 0 0 12 -12 v 0"/>
<g class="sequence">
<g class="terminal">
<rect height="22" rx="10" ry="10" width="68" x="59" y="208"/>
<text x="93" y="224">
&quot;hash&quot;</text>
</g>
</g>
<path d=" M 47 240 v 0 a 12 12 0 0 0 12 12 m 84 0 h 730 m -362 0 l -5 -5 m 0 10 l 5 -5 m 362 0 a 12 12 0 0 0 12 -12 v 0"/>
<g class="sequence">
<g class="terminal">
<rect height="22" rx="10" ry="10" width="84" x="59" y="241"/>
<text x="101" y="257">
&quot;fields&quot;</text>
</g>
</g>
<path d=" M 47 273 v 0 a 12 12 0 0 0 12 12 m 84 0 h 730 m -362 0 l -5 -5 m 0 10 l 5 -5 m 362 0 a 12 12 0 0 0 12 -12 v 0"/>
<g class="sequence">
<g class="terminal">
<rect height="22" rx="10" ry="10" width="84" x="59" y="274"/>
<text x="101" y="290">
&quot;string&quot;</text>
</g>
</g>
<path d=" M 47 306 v 12 a 12 12 0 0 0 12 12 m 814 0 h 0 a 12 12 0 0 0 12 -12 v -12"/>
<g class="sequence">
<g class="terminal">
<rect height="22" rx="10" ry="10" width="92" x="59" y="319"/>
<text x="105" y="335">
&quot;mapping&quot;</text>
</g>
<g class="terminal">
<rect height="22" rx="10" ry="10" width="44" x="161" y="319"/>
<text x="183" y="335">
&quot;(&quot;</text>
</g>
<g class="nonterminal">
<rect height="22" width="108" x="215" y="319"/>
<text x="269" y="335">
Precedence0</text>
</g>
<g class="optional">
<path d=" M 333 330 h 24 m -24 0 a 12 12 0 0 0 12 -12 v 0 a 12 12 0 0 1 12 -12 h 100 m -47 0 l -5 -5 m 0 10 l 5 -5 m 47 0 a 12 12 0 0 1 12 12 v 0 a 12 12 0 0 0 12 12 h -24"/>
<g class="sequence">
<g class="nonterminal">
<rect height="22" width="100" x="357" y="319"/>
<text x="407" y="335">
Identifier</text>
</g>
</g>
</g>
<g class="terminal">
<rect height="22" rx="10" ry="10" width="52" x="491" y="319"/>
<text x="517" y="335">
&quot;=&gt;&quot;</text>
</g>
<g class="nonterminal">
<rect height="22" width="108" x="553" y="319"/>
<text x="607" y="335">
Precedence0</text>
</g>
<g class="optional">
<path d=" M 671 330 h 24 m -24 0 a 12 12 0 0 0 12 -12 v 0 a 12 12 0 0 1 12 -12 h 100 m -47 0 l -5 -5 m 0 10 l 5 -5 m 47 0 a 12 12 0 0 1 12 12 v 0 a 12 12 0 0 0 12 12 h -24"/>
<g class="sequence">
<g class="nonterminal">
<rect height="22" width="100" x="695" y="319"/>
<text x="745" y="335">
Identifier</text>
</g>
</g>
</g>
<g class="terminal">
<rect height="22" rx="10" ry="10" width="44" x="829" y="319"/>
<text x="851" y="335">
&quot;)&quot;</text>
</g>
<path d=" M 151 330 h 10"/>
<path d=" M 205 330 h 10"/>
<path d=" M 323 330 h 10"/>
<path d=" M 481 330 h 10"/>
<path d=" M 543 330 h 10"/>
<path d=" M 661 330 h 10"/>
<path d=" M 819 330 h 10"/>
</g>
</g>
<path d=" M 907 21 h 20 m -10 -10 v 20 m 10 -20 v 20"/>
<path d=" M 25 21 h 10"/>
<path d=" M 897 21 h 10"/>
</g>
</svg>
