<svg class="railroad" viewBox="0 0 1063 198" xmlns="http://www.w3.org/2000/svg" xmlns:xlink="http://www.w3.org/1999/xlink">
<style type="text/css">

svg.railroad {
  background-color: rgba(238, 238, 238, .91);
  background-size: 15px 15px;
  background-image: linear-gradient(to right, rgba(25, 25, 225, .65) 1px, transparent 1px),
                    linear-gradient(to bottom, rgba(25, 25, 225, .65) 1px, transparent 1px);
}

svg.railroad path {
  stroke-width: 3px;
  stroke: black;
  fill: transparent;
}

svg.railroad .debug {
  stroke-width: 1px;
  stroke: red;
}

svg.railroad text {
  font: 14px monospace;
  text-anchor: middle;
}

svg.railroad .nonterminal text {
  font-weight: bold;
}

svg.railroad text.comment {
  font: italic 12px monospace;
}

svg.railroad rect {
  stroke-width: 3px;
  stroke: black;
  fill:rgba(0, 0, 90, 0%);
}

svg.railroad .terminal rect {
  fill: aquamarine;  
}

svg.railroad .nonterminal rect {
  fill: orange;  
}

svg.railroad g.labeledbox &gt; rect {
  border-radius: 25px;
  border: 2px solid #73AD21;
  stroke-width: 1.5px;
  stroke: grey;
  stroke-dasharray: 5px;
  fill:rgba(150, 150, 150, 25%);
}

</style>
<g class="sequence">
<path d=" M 10 21 a 5 5 0 0 1 5 -5 a 5 5 0 0 1 5 5 a 5 5 0 0 1 -5 5 a 5 5 0 0 1 -5 -5 m 10 0 h 5"/>
<g class="choice">
<path d=" M 35 21 h 24 m 132 0 h 832 m -413 0 l -5 -5 m 0 10 l 5 -5 m 413 0"/>
<g class="sequence">
<g class="nonterminal">
<rect height="22" width="132" x="59" y="10"/>
<text x="125" y="26">
NonIfStatement</text>
</g>
</g>
<path d=" M 35 21 a 12 12 0 0 1 12 12 v 9 m 964 0 v -9 a 12 12 0 0 1 12 -12"/>
<path d=" M 47 42 v 33 m 964 0 v -33"/>
<path d=" M 47 75 v 33 m 964 0 v -33"/>
<path d=" M 47 120 v 33 m 964 0 v -33"/>
<path d=" M 47 42 v 0 a 12 12 0 0 0 12 12 m 648 0 h 292 m -143 0 l -5 -5 m 0 10 l 5 -5 m 143 0 a 12 12 0 0 0 12 -12 v 0"/>
<g class="sequence">
<g class="terminal">
<rect height="22" rx="10" ry="10" width="52" x="59" y="43"/>
<text x="85" y="59">
&quot;if&quot;</text>
</g>
<g class="terminal">
<rect height="22" rx="10" ry="10" width="44" x="121" y="43"/>
<text x="143" y="59">
&quot;(&quot;</text>
</g>
<g class="nonterminal">
<rect height="22" width="100" x="175" y="43"/>
<text x="225" y="59">
Expression</text>
</g>
<g class="terminal">
<rect height="22" rx="10" ry="10" width="44" x="285" y="43"/>
<text x="307" y="59">
&quot;)&quot;</text>
</g>
<g class="nonterminal">
<rect height="22" width="140" x="339" y="43"/>
<text x="409" y="59">
ClosedStatement</text>
</g>
<g class="terminal">
<rect height="22" rx="10" ry="10" width="68" x="489" y="43"/>
<text x="523" y="59">
&quot;else&quot;</text>
</g>
<g class="nonterminal">
<rect height="22" width="140" x="567" y="43"/>
<text x="637" y="59">
ClosedStatement</text>
</g>
<path d=" M 111 54 h 10"/>
<path d=" M 165 54 h 10"/>
<path d=" M 275 54 h 10"/>
<path d=" M 329 54 h 10"/>
<path d=" M 479 54 h 10"/>
<path d=" M 557 54 h 10"/>
</g>
<path d=" M 47 75 v 0 a 12 12 0 0 0 12 12 m 444 0 h 496 m -245 0 l -5 -5 m 0 10 l 5 -5 m 245 0 a 12 12 0 0 0 12 -12 v 0"/>
<g class="sequence">
<g class="terminal">
<rect height="22" rx="10" ry="10" width="76" x="59" y="76"/>
<text x="97" y="92">
&quot;while&quot;</text>
</g>
<g class="terminal">
<rect height="22" rx="10" ry="10" width="44" x="145" y="76"/>
<text x="167" y="92">
&quot;(&quot;</text>
</g>
<g class="nonterminal">
<rect height="22" width="100" x="199" y="76"/>
<text x="249" y="92">
Expression</text>
</g>
<g class="terminal">
<rect height="22" rx="10" ry="10" width="44" x="309" y="76"/>
<text x="331" y="92">
&quot;)&quot;</text>
</g>
<g class="nonterminal">
<rect height="22" width="140" x="363" y="76"/>
<text x="433" y="92">
ClosedStatement</text>
</g>
<path d=" M 135 87 h 10"/>
<path d=" M 189 87 h 10"/>
<path d=" M 299 87 h 10"/>
<path d=" M 353 87 h 10"/>
</g>
<path d=" M 47 108 v 12 a 12 12 0 0 0 12 12 m 940 0 h 0 a 12 12 0 0 0 12 -12 v -12"/>
<g class="sequence">
<g class="terminal">
<rect height="22" rx="10" ry="10" width="60" x="59" y="121"/>
<text x="89" y="137">
&quot;for&quot;</text>
</g>
<g class="terminal">
<rect height="22" rx="10" ry="10" width="44" x="129" y="121"/>
<text x="151" y="137">
&quot;(&quot;</text>
</g>
<g class="optional">
<path d=" M 183 132 h 24 m -24 0 a 12 12 0 0 0 12 -12 v 0 a 12 12 0 0 1 12 -12 h 140 m -67 0 l -5 -5 m 0 10 l 5 -5 m 67 0 a 12 12 0 0 1 12 12 v 0 a 12 12 0 0 0 12 12 h -24"/>
<g class="sequence">
<g class="nonterminal">
<rect height="22" width="140" x="207" y="121"/>
<text x="277" y="137">
SimpleStatement</text>
</g>
</g>
</g>
<g class="terminal">
<rect height="22" rx="10" ry="10" width="44" x="381" y="121"/>
<text x="403" y="137">
&quot;;&quot;</text>
</g>
<g class="optional">
<path d=" M 435 132 h 24 m -24 0 a 12 12 0 0 0 12 -12 v 0 a 12 12 0 0 1 12 -12 h 100 m -47 0 l -5 -5 m 0 10 l 5 -5 m 47 0 a 12 12 0 0 1 12 12 v 0 a 12 12 0 0 0 12 12 h -24"/>
<g class="sequence">
<g class="nonterminal">
<rect height="22" width="100" x="459" y="121"/>
<text x="509" y="137">
Expression</text>
</g>
</g>
</g>
<g class="terminal">
<rect height="22" rx="10" ry="10" width="44" x="593" y="121"/>
<text x="615" y="137">
&quot;;&quot;</text>
</g>
<g class="optional">
<path d=" M 647 132 h 24 m -24 0 a 12 12 0 0 0 12 -12 v 0 a 12 12 0 0 1 12 -12 h 100 m -47 0 l -5 -5 m 0 10 l 5 -5 m 47 0 a 12 12 0 0 1 12 12 v 0 a 12 12 0 0 0 12 12 h -24"/>
<g class="sequence">
<g class="nonterminal">
<rect height="22" width="100" x="671" y="121"/>
<text x="721" y="137">
Expression</text>
</g>
</g>
</g>
<g class="terminal">
<rect height="22" rx="10" ry="10" width="44" x="805" y="121"/>
<text x="827" y="137">
&quot;)&quot;</text>
</g>
<g class="nonterminal">
<rect height="22" width="140" x="859" y="121"/>
<text x="929" y="137">
ClosedStatement</text>
</g>
<path d=" M 119 132 h 10"/>
<path d=" M 173 132 h 10"/>
<path d=" M 371 132 h 10"/>
<path d=" M 425 132 h 10"/>
<path d=" M 583 132 h 10"/>
<path d=" M 637 132 h 10"/>
<path d=" M 795 132 h 10"/>
<path d=" M 849 132 h 10"/>
</g>
<path d=" M 47 153 v 12 a 12 12 0 0 0 12 12 m 844 0 h 96 m -45 0 l -5 -5 m 0 10 l 5 -5 m 45 0 a 12 12 0 0 0 12 -12 v -12"/>
<g class="sequence">
<g class="terminal">
<rect height="22" rx="10" ry="10" width="60" x="59" y="166"/>
<text x="89" y="182">
&quot;for&quot;</text>
</g>
<g class="terminal">
<rect height="22" rx="10" ry="10" width="44" x="129" y="166"/>
<text x="151" y="182">
&quot;(&quot;</text>
</g>
<g class="optional">
<path d=" M 183 177 h 24 m -24 0 a 12 12 0 0 0 12 -12 v 0 a 12 12 0 0 1 12 -12 h 140 m -67 0 l -5 -5 m 0 10 l 5 -5 m 67 0 a 12 12 0 0 1 12 12 v 0 a 12 12 0 0 0 12 12 h -24"/>
<g class="sequence">
<g class="nonterminal">
<rect height="22" width="140" x="207" y="166"/>
<text x="277" y="182">
SimpleStatement</text>
</g>
</g>
</g>
<g class="terminal">
<rect height="22" rx="10" ry="10" width="44" x="381" y="166"/>
<text x="403" y="182">
&quot;;&quot;</text>
</g>
<g class="optional">
<path d=" M 435 177 h 24 m -24 0 a 12 12 0 0 0 12 -12 v 0 a 12 12 0 0 1 12 -12 h 100 m -47 0 l -5 -5 m 0 10 l 5 -5 m 47 0 a 12 12 0 0 1 12 12 v 0 a 12 12 0 0 0 12 12 h -24"/>
<g class="sequence">
<g class="nonterminal">
<rect height="22" width="100" x="459" y="166"/>
<text x="509" y="182">
Expression</text>
</g>
</g>
</g>
<g class="terminal">
<rect height="22" rx="10" ry="10" width="44" x="593" y="166"/>
<text x="615" y="182">
&quot;;&quot;</text>
</g>
<g class="optional">
<path d=" M 647 177 h 24 m -24 0 a 12 12 0 0 0 12 -12 v 0 a 12 12 0 0 1 12 -12 h 100 m -47 0 l -5 -5 m 0 10 l 5 -5 m 47 0 a 12 12 0 0 1 12 12 v 0 a 12 12 0 0 0 12 12 h -24"/>
<g class="sequence">
<g class="nonterminal">
<rect height="22" width="100" x="671" y="166"/>
<text x="721" y="182">
Expression</text>
</g>
</g>
</g>
<g class="terminal">
<rect height="22" rx="10" ry="10" width="44" x="805" y="166"/>
<text x="827" y="182">
&quot;)&quot;</text>
</g>
<g class="terminal">
<rect height="22" rx="10" ry="10" width="44" x="859" y="166"/>
<text x="881" y="182">
&quot;;&quot;</text>
</g>
<path d=" M 119 177 h 10"/>
<path d=" M 173 177 h 10"/>
<path d=" M 371 177 h 10"/>
<path d=" M 425 177 h 10"/>
<path d=" M 583 177 h 10"/>
<path d=" M 637 177 h 10"/>
<path d=" M 795 177 h 10"/>
<path d=" M 849 177 h 10"/>
</g>
</g>
<path d=" M 1033 21 h 20 m -10 -10 v 20 m 10 -20 v 20"/>
<path d=" M 25 21 h 10"/>
<path d=" M 1023 21 h 10"/>
</g>
</svg>
