<svg class="railroad" viewBox="0 0 296 108" xmlns="http://www.w3.org/2000/svg" xmlns:xlink="http://www.w3.org/1999/xlink">
<style type="text/css">

svg.railroad {
  background-color: rgba(238, 238, 238, .91);
  background-size: 15px 15px;
  background-image: linear-gradient(to right, rgba(25, 25, 225, .65) 1px, transparent 1px),
                    linear-gradient(to bottom, rgba(25, 25, 225, .65) 1px, transparent 1px);
}

svg.railroad path {
  stroke-width: 3px;
  stroke: black;
  fill: transparent;
}

svg.railroad .debug {
  stroke-width: 1px;
  stroke: red;
}

svg.railroad text {
  font: 14px monospace;
  text-anchor: middle;
}

svg.railroad .nonterminal text {
  font-weight: bold;
}

svg.railroad text.comment {
  font: italic 12px monospace;
}

svg.railroad rect {
  stroke-width: 3px;
  stroke: black;
  fill:rgba(0, 0, 90, 0%);
}

svg.railroad .terminal rect {
  fill: aquamarine;  
}

svg.railroad .nonterminal rect {
  fill: orange;  
}

svg.railroad g.labeledbox &gt; rect {
  border-radius: 25px;
  border: 2px solid #73AD21;
  stroke-width: 1.5px;
  stroke: grey;
  stroke-dasharray: 5px;
  fill:rgba(150, 150, 150, 25%);
}

</style>
<g class="sequence">
<path d=" M 10 20 a 5 5 0 0 1 5 -5 a 5 5 0 0 1 5 5 a 5 5 0 0 1 -5 5 a 5 5 0 0 1 -5 -5 m 10 0 h 5"/>
<g class="choice">
<path d=" M 35 20 h 24 m 0 0 h 197 m -95 0 l -5 -5 m 0 10 l 5 -5 m 95 0"/>
<g class="sequence"/>
<path d=" M 35 20 a 12 12 0 0 1 12 12 v 0 m 197 0 v 0 a 12 12 0 0 1 12 -12"/>
<path d=" M 47 32 v 35 a 12 12 0 0 0 12 12 m 173 0 h 0 a 12 12 0 0 0 12 -12 v -35"/>
<g class="sequence">
<g class="labeledbox">
<rect height="66" width="173" x="59" y="32"/>
<path d=" M 59 79 h 8 m 28 0 h 137 m -65 0 l -5 -5 m 0 10 l 5 -5 m 65 0"/>
<text class="comment" x="145" y="55">
Macro Rule: CommaOne</text>
<g class="sequence">
<g class="sequence">
<g class="nonterminal">
<rect height="22" width="28" x="67" y="68"/>
<text x="81" y="84">
T</text>
</g>
</g>
</g>
</g>
</g>
</g>
<path d=" M 266 20 h 20 m -10 -10 v 20 m 10 -20 v 20"/>
<path d=" M 25 20 h 10"/>
<path d=" M 256 20 h 10"/>
</g>
</svg>
