<svg class="railroad" viewBox="0 0 597 195" xmlns="http://www.w3.org/2000/svg" xmlns:xlink="http://www.w3.org/1999/xlink">
<style type="text/css">

svg.railroad {
  background-color: rgba(238, 238, 238, .91);
  background-size: 15px 15px;
  background-image: linear-gradient(to right, rgba(25, 25, 225, .65) 1px, transparent 1px),
                    linear-gradient(to bottom, rgba(25, 25, 225, .65) 1px, transparent 1px);
}

svg.railroad path {
  stroke-width: 3px;
  stroke: black;
  fill: transparent;
}

svg.railroad .debug {
  stroke-width: 1px;
  stroke: red;
}

svg.railroad text {
  font: 14px monospace;
  text-anchor: middle;
}

svg.railroad .nonterminal text {
  font-weight: bold;
}

svg.railroad text.comment {
  font: italic 12px monospace;
}

svg.railroad rect {
  stroke-width: 3px;
  stroke: black;
  fill:rgba(0, 0, 90, 0%);
}

svg.railroad .terminal rect {
  fill: aquamarine;  
}

svg.railroad .nonterminal rect {
  fill: orange;  
}

svg.railroad g.labeledbox &gt; rect {
  border-radius: 25px;
  border: 2px solid #73AD21;
  stroke-width: 1.5px;
  stroke: grey;
  stroke-dasharray: 5px;
  fill:rgba(150, 150, 150, 25%);
}

</style>
<g class="sequence">
<path d=" M 10 57 a 5 5 0 0 1 5 -5 a 5 5 0 0 1 5 5 a 5 5 0 0 1 -5 5 a 5 5 0 0 1 -5 -5 m 10 0 h 5"/>
<g class="choice">
<path d=" M 35 57 h 24 m 342 0 h 156 m -75 0 l -5 -5 m 0 10 l 5 -5 m 75 0"/>
<g class="sequence">
<g class="labeledbox">
<rect height="66" width="288" x="59" y="10"/>
<path d=" M 59 57 h 8 m 272 0 h 8"/>
<text class="comment" x="131" y="33">
Macro Rule: Comma</text>
<g class="sequence">
<g class="sequence">
<g class="nonterminal">
<rect height="22" width="108" x="67" y="46"/>
<text x="121" y="62">
Precedence0</text>
</g>
<g class="terminal">
<rect height="22" rx="10" ry="10" width="44" x="185" y="46"/>
<text x="207" y="62">
&quot;(&quot;</text>
</g>
<g class="nonterminal">
<rect height="22" width="100" x="239" y="46"/>
<text x="289" y="62">
Expression</text>
</g>
<path d=" M 175 57 h 10"/>
<path d=" M 229 57 h 10"/>
</g>
</g>
</g>
<g class="terminal">
<rect height="22" rx="10" ry="10" width="44" x="357" y="46"/>
<text x="379" y="62">
&quot;)&quot;</text>
</g>
<path d=" M 347 57 h 10"/>
</g>
<path d=" M 35 57 a 12 12 0 0 1 12 12 v 17 m 498 0 v -17 a 12 12 0 0 1 12 -12"/>
<path d=" M 47 86 v 33 m 498 0 v -33"/>
<path d=" M 47 86 v 0 a 12 12 0 0 0 12 12 m 250 0 h 224 m -109 0 l -5 -5 m 0 10 l 5 -5 m 109 0 a 12 12 0 0 0 12 -12 v 0"/>
<g class="sequence">
<g class="nonterminal">
<rect height="22" width="108" x="59" y="87"/>
<text x="113" y="103">
Precedence0</text>
</g>
<g class="nonterminal">
<rect height="22" width="132" x="177" y="87"/>
<text x="243" y="103">
BlockStatement</text>
</g>
<path d=" M 167 98 h 10"/>
</g>
<path d=" M 47 119 v 35 a 12 12 0 0 0 12 12 m 474 0 h 0 a 12 12 0 0 0 12 -12 v -35"/>
<g class="sequence">
<g class="labeledbox">
<rect height="66" width="366" x="59" y="119"/>
<path d=" M 59 166 h 8 m 350 0 h 8"/>
<text class="comment" x="131" y="142">
Macro Rule: Comma</text>
<g class="sequence">
<g class="sequence">
<g class="nonterminal">
<rect height="22" width="108" x="67" y="155"/>
<text x="121" y="171">
Precedence0</text>
</g>
<g class="terminal">
<rect height="22" rx="10" ry="10" width="44" x="185" y="155"/>
<text x="207" y="171">
&quot;(&quot;</text>
</g>
<g class="terminal">
<rect height="22" rx="10" ry="10" width="44" x="239" y="155"/>
<text x="261" y="171">
&quot;{&quot;</text>
</g>
<g class="nonterminal">
<rect height="22" width="124" x="293" y="155"/>
<text x="355" y="171">
NamedArgument</text>
</g>
<path d=" M 175 166 h 10"/>
<path d=" M 229 166 h 10"/>
<path d=" M 283 166 h 10"/>
</g>
</g>
</g>
<g class="terminal">
<rect height="22" rx="10" ry="10" width="44" x="435" y="155"/>
<text x="457" y="171">
&quot;}&quot;</text>
</g>
<g class="terminal">
<rect height="22" rx="10" ry="10" width="44" x="489" y="155"/>
<text x="511" y="171">
&quot;)&quot;</text>
</g>
<path d=" M 425 166 h 10"/>
<path d=" M 479 166 h 10"/>
</g>
</g>
<path d=" M 567 57 h 20 m -10 -10 v 20 m 10 -20 v 20"/>
<path d=" M 25 57 h 10"/>
<path d=" M 557 57 h 10"/>
</g>
</svg>
