<svg class="railroad" viewBox="0 0 403 75" xmlns="http://www.w3.org/2000/svg" xmlns:xlink="http://www.w3.org/1999/xlink">
<style type="text/css">

svg.railroad {
  background-color: rgba(238, 238, 238, .91);
  background-size: 15px 15px;
  background-image: linear-gradient(to right, rgba(25, 25, 225, .65) 1px, transparent 1px),
                    linear-gradient(to bottom, rgba(25, 25, 225, .65) 1px, transparent 1px);
}

svg.railroad path {
  stroke-width: 3px;
  stroke: black;
  fill: transparent;
}

svg.railroad .debug {
  stroke-width: 1px;
  stroke: red;
}

svg.railroad text {
  font: 14px monospace;
  text-anchor: middle;
}

svg.railroad .nonterminal text {
  font-weight: bold;
}

svg.railroad text.comment {
  font: italic 12px monospace;
}

svg.railroad rect {
  stroke-width: 3px;
  stroke: black;
  fill:rgba(0, 0, 90, 0%);
}

svg.railroad .terminal rect {
  fill: aquamarine;  
}

svg.railroad .nonterminal rect {
  fill: orange;  
}

svg.railroad g.labeledbox &gt; rect {
  border-radius: 25px;
  border: 2px solid #73AD21;
  stroke-width: 1.5px;
  stroke: grey;
  stroke-dasharray: 5px;
  fill:rgba(150, 150, 150, 25%);
}

</style>
<g class="sequence">
<path d=" M 10 21 a 5 5 0 0 1 5 -5 a 5 5 0 0 1 5 5 a 5 5 0 0 1 -5 5 a 5 5 0 0 1 -5 -5 m 10 0 h 5"/>
<g class="choice">
<path d=" M 35 21 h 24 m 280 0 h 24"/>
<g class="sequence">
<g class="nonterminal">
<rect height="22" width="108" x="59" y="10"/>
<text x="113" y="26">
Precedence8</text>
</g>
<g class="terminal">
<rect height="22" rx="10" ry="10" width="44" x="177" y="10"/>
<text x="199" y="26">
&quot;^&quot;</text>
</g>
<g class="nonterminal">
<rect height="22" width="108" x="231" y="10"/>
<text x="285" y="26">
Precedence7</text>
</g>
<path d=" M 167 21 h 10"/>
<path d=" M 221 21 h 10"/>
</g>
<path d=" M 35 21 a 12 12 0 0 1 12 12 v 9 m 304 0 v -9 a 12 12 0 0 1 12 -12"/>
<path d=" M 47 42 v 0 a 12 12 0 0 0 12 12 m 108 0 h 172 m -83 0 l -5 -5 m 0 10 l 5 -5 m 83 0 a 12 12 0 0 0 12 -12 v 0"/>
<g class="sequence">
<g class="nonterminal">
<rect height="22" width="108" x="59" y="43"/>
<text x="113" y="59">
Precedence7</text>
</g>
</g>
</g>
<path d=" M 373 21 h 20 m -10 -10 v 20 m 10 -20 v 20"/>
<path d=" M 25 21 h 10"/>
<path d=" M 363 21 h 10"/>
</g>
</svg>
