<svg class="railroad" viewBox="0 0 599 438" xmlns="http://www.w3.org/2000/svg" xmlns:xlink="http://www.w3.org/1999/xlink">
<style type="text/css">

svg.railroad {
  background-color: rgba(238, 238, 238, .91);
  background-size: 15px 15px;
  background-image: linear-gradient(to right, rgba(25, 25, 225, .65) 1px, transparent 1px),
                    linear-gradient(to bottom, rgba(25, 25, 225, .65) 1px, transparent 1px);
}

svg.railroad path {
  stroke-width: 3px;
  stroke: black;
  fill: transparent;
}

svg.railroad .debug {
  stroke-width: 1px;
  stroke: red;
}

svg.railroad text {
  font: 14px monospace;
  text-anchor: middle;
}

svg.railroad .nonterminal text {
  font-weight: bold;
}

svg.railroad text.comment {
  font: italic 12px monospace;
}

svg.railroad rect {
  stroke-width: 3px;
  stroke: black;
  fill:rgba(0, 0, 90, 0%);
}

svg.railroad .terminal rect {
  fill: aquamarine;  
}

svg.railroad .nonterminal rect {
  fill: orange;  
}

svg.railroad g.labeledbox &gt; rect {
  border-radius: 25px;
  border: 2px solid #73AD21;
  stroke-width: 1.5px;
  stroke: grey;
  stroke-dasharray: 5px;
  fill:rgba(150, 150, 150, 25%);
}

</style>
<g class="sequence">
<path d=" M 10 21 a 5 5 0 0 1 5 -5 a 5 5 0 0 1 5 5 a 5 5 0 0 1 -5 5 a 5 5 0 0 1 -5 -5 m 10 0 h 5"/>
<g class="choice">
<path d=" M 35 21 h 24 m 296 0 h 204 m -99 0 l -5 -5 m 0 10 l 5 -5 m 99 0"/>
<g class="sequence">
<g class="nonterminal">
<rect height="22" width="116" x="59" y="10"/>
<text x="117" y="26">
Precedence13</text>
</g>
<g class="terminal">
<rect height="22" rx="10" ry="10" width="44" x="185" y="10"/>
<text x="207" y="26">
&quot;=&quot;</text>
</g>
<g class="nonterminal">
<rect height="22" width="116" x="239" y="10"/>
<text x="297" y="26">
Precedence14</text>
</g>
<path d=" M 175 21 h 10"/>
<path d=" M 229 21 h 10"/>
</g>
<path d=" M 35 21 a 12 12 0 0 1 12 12 v 9 m 500 0 v -9 a 12 12 0 0 1 12 -12"/>
<path d=" M 47 42 v 33 m 500 0 v -33"/>
<path d=" M 47 75 v 33 m 500 0 v -33"/>
<path d=" M 47 108 v 33 m 500 0 v -33"/>
<path d=" M 47 141 v 33 m 500 0 v -33"/>
<path d=" M 47 174 v 33 m 500 0 v -33"/>
<path d=" M 47 207 v 33 m 500 0 v -33"/>
<path d=" M 47 240 v 33 m 500 0 v -33"/>
<path d=" M 47 273 v 33 m 500 0 v -33"/>
<path d=" M 47 306 v 33 m 500 0 v -33"/>
<path d=" M 47 339 v 33 m 500 0 v -33"/>
<path d=" M 47 372 v 33 m 500 0 v -33"/>
<path d=" M 47 42 v 0 a 12 12 0 0 0 12 12 m 304 0 h 172 m -83 0 l -5 -5 m 0 10 l 5 -5 m 83 0 a 12 12 0 0 0 12 -12 v 0"/>
<g class="sequence">
<g class="nonterminal">
<rect height="22" width="116" x="59" y="43"/>
<text x="117" y="59">
Precedence13</text>
</g>
<g class="terminal">
<rect height="22" rx="10" ry="10" width="52" x="185" y="43"/>
<text x="211" y="59">
&quot;|=&quot;</text>
</g>
<g class="nonterminal">
<rect height="22" width="116" x="247" y="43"/>
<text x="305" y="59">
Precedence14</text>
</g>
<path d=" M 175 54 h 10"/>
<path d=" M 237 54 h 10"/>
</g>
<path d=" M 47 75 v 0 a 12 12 0 0 0 12 12 m 304 0 h 172 m -83 0 l -5 -5 m 0 10 l 5 -5 m 83 0 a 12 12 0 0 0 12 -12 v 0"/>
<g class="sequence">
<g class="nonterminal">
<rect height="22" width="116" x="59" y="76"/>
<text x="117" y="92">
Precedence13</text>
</g>
<g class="terminal">
<rect height="22" rx="10" ry="10" width="52" x="185" y="76"/>
<text x="211" y="92">
&quot;^=&quot;</text>
</g>
<g class="nonterminal">
<rect height="22" width="116" x="247" y="76"/>
<text x="305" y="92">
Precedence14</text>
</g>
<path d=" M 175 87 h 10"/>
<path d=" M 237 87 h 10"/>
</g>
<path d=" M 47 108 v 0 a 12 12 0 0 0 12 12 m 304 0 h 172 m -83 0 l -5 -5 m 0 10 l 5 -5 m 83 0 a 12 12 0 0 0 12 -12 v 0"/>
<g class="sequence">
<g class="nonterminal">
<rect height="22" width="116" x="59" y="109"/>
<text x="117" y="125">
Precedence13</text>
</g>
<g class="terminal">
<rect height="22" rx="10" ry="10" width="52" x="185" y="109"/>
<text x="211" y="125">
&quot;&amp;=&quot;</text>
</g>
<g class="nonterminal">
<rect height="22" width="116" x="247" y="109"/>
<text x="305" y="125">
Precedence14</text>
</g>
<path d=" M 175 120 h 10"/>
<path d=" M 237 120 h 10"/>
</g>
<path d=" M 47 141 v 0 a 12 12 0 0 0 12 12 m 312 0 h 164 m -79 0 l -5 -5 m 0 10 l 5 -5 m 79 0 a 12 12 0 0 0 12 -12 v 0"/>
<g class="sequence">
<g class="nonterminal">
<rect height="22" width="116" x="59" y="142"/>
<text x="117" y="158">
Precedence13</text>
</g>
<g class="terminal">
<rect height="22" rx="10" ry="10" width="60" x="185" y="142"/>
<text x="215" y="158">
&quot;&lt;&lt;=&quot;</text>
</g>
<g class="nonterminal">
<rect height="22" width="116" x="255" y="142"/>
<text x="313" y="158">
Precedence14</text>
</g>
<path d=" M 175 153 h 10"/>
<path d=" M 245 153 h 10"/>
</g>
<path d=" M 47 174 v 0 a 12 12 0 0 0 12 12 m 312 0 h 164 m -79 0 l -5 -5 m 0 10 l 5 -5 m 79 0 a 12 12 0 0 0 12 -12 v 0"/>
<g class="sequence">
<g class="nonterminal">
<rect height="22" width="116" x="59" y="175"/>
<text x="117" y="191">
Precedence13</text>
</g>
<g class="terminal">
<rect height="22" rx="10" ry="10" width="60" x="185" y="175"/>
<text x="215" y="191">
&quot;&gt;&gt;=&quot;</text>
</g>
<g class="nonterminal">
<rect height="22" width="116" x="255" y="175"/>
<text x="313" y="191">
Precedence14</text>
</g>
<path d=" M 175 186 h 10"/>
<path d=" M 245 186 h 10"/>
</g>
<path d=" M 47 207 v 0 a 12 12 0 0 0 12 12 m 304 0 h 172 m -83 0 l -5 -5 m 0 10 l 5 -5 m 83 0 a 12 12 0 0 0 12 -12 v 0"/>
<g class="sequence">
<g class="nonterminal">
<rect height="22" width="116" x="59" y="208"/>
<text x="117" y="224">
Precedence13</text>
</g>
<g class="terminal">
<rect height="22" rx="10" ry="10" width="52" x="185" y="208"/>
<text x="211" y="224">
&quot;+=&quot;</text>
</g>
<g class="nonterminal">
<rect height="22" width="116" x="247" y="208"/>
<text x="305" y="224">
Precedence14</text>
</g>
<path d=" M 175 219 h 10"/>
<path d=" M 237 219 h 10"/>
</g>
<path d=" M 47 240 v 0 a 12 12 0 0 0 12 12 m 304 0 h 172 m -83 0 l -5 -5 m 0 10 l 5 -5 m 83 0 a 12 12 0 0 0 12 -12 v 0"/>
<g class="sequence">
<g class="nonterminal">
<rect height="22" width="116" x="59" y="241"/>
<text x="117" y="257">
Precedence13</text>
</g>
<g class="terminal">
<rect height="22" rx="10" ry="10" width="52" x="185" y="241"/>
<text x="211" y="257">
&quot;-=&quot;</text>
</g>
<g class="nonterminal">
<rect height="22" width="116" x="247" y="241"/>
<text x="305" y="257">
Precedence14</text>
</g>
<path d=" M 175 252 h 10"/>
<path d=" M 237 252 h 10"/>
</g>
<path d=" M 47 273 v 0 a 12 12 0 0 0 12 12 m 304 0 h 172 m -83 0 l -5 -5 m 0 10 l 5 -5 m 83 0 a 12 12 0 0 0 12 -12 v 0"/>
<g class="sequence">
<g class="nonterminal">
<rect height="22" width="116" x="59" y="274"/>
<text x="117" y="290">
Precedence13</text>
</g>
<g class="terminal">
<rect height="22" rx="10" ry="10" width="52" x="185" y="274"/>
<text x="211" y="290">
&quot;*=&quot;</text>
</g>
<g class="nonterminal">
<rect height="22" width="116" x="247" y="274"/>
<text x="305" y="290">
Precedence14</text>
</g>
<path d=" M 175 285 h 10"/>
<path d=" M 237 285 h 10"/>
</g>
<path d=" M 47 306 v 0 a 12 12 0 0 0 12 12 m 304 0 h 172 m -83 0 l -5 -5 m 0 10 l 5 -5 m 83 0 a 12 12 0 0 0 12 -12 v 0"/>
<g class="sequence">
<g class="nonterminal">
<rect height="22" width="116" x="59" y="307"/>
<text x="117" y="323">
Precedence13</text>
</g>
<g class="terminal">
<rect height="22" rx="10" ry="10" width="52" x="185" y="307"/>
<text x="211" y="323">
&quot;/=&quot;</text>
</g>
<g class="nonterminal">
<rect height="22" width="116" x="247" y="307"/>
<text x="305" y="323">
Precedence14</text>
</g>
<path d=" M 175 318 h 10"/>
<path d=" M 237 318 h 10"/>
</g>
<path d=" M 47 339 v 0 a 12 12 0 0 0 12 12 m 304 0 h 172 m -83 0 l -5 -5 m 0 10 l 5 -5 m 83 0 a 12 12 0 0 0 12 -12 v 0"/>
<g class="sequence">
<g class="nonterminal">
<rect height="22" width="116" x="59" y="340"/>
<text x="117" y="356">
Precedence13</text>
</g>
<g class="terminal">
<rect height="22" rx="10" ry="10" width="52" x="185" y="340"/>
<text x="211" y="356">
&quot;%=&quot;</text>
</g>
<g class="nonterminal">
<rect height="22" width="116" x="247" y="340"/>
<text x="305" y="356">
Precedence14</text>
</g>
<path d=" M 175 351 h 10"/>
<path d=" M 237 351 h 10"/>
</g>
<path d=" M 47 372 v 0 a 12 12 0 0 0 12 12 m 476 0 h 0 a 12 12 0 0 0 12 -12 v 0"/>
<g class="sequence">
<g class="nonterminal">
<rect height="22" width="116" x="59" y="373"/>
<text x="117" y="389">
Precedence13</text>
</g>
<g class="terminal">
<rect height="22" rx="10" ry="10" width="44" x="185" y="373"/>
<text x="207" y="389">
&quot;?&quot;</text>
</g>
<g class="nonterminal">
<rect height="22" width="116" x="239" y="373"/>
<text x="297" y="389">
Precedence14</text>
</g>
<g class="terminal">
<rect height="22" rx="10" ry="10" width="44" x="365" y="373"/>
<text x="387" y="389">
&quot;:&quot;</text>
</g>
<g class="nonterminal">
<rect height="22" width="116" x="419" y="373"/>
<text x="477" y="389">
Precedence14</text>
</g>
<path d=" M 175 384 h 10"/>
<path d=" M 229 384 h 10"/>
<path d=" M 355 384 h 10"/>
<path d=" M 409 384 h 10"/>
</g>
<path d=" M 47 405 v 0 a 12 12 0 0 0 12 12 m 116 0 h 360 m -177 0 l -5 -5 m 0 10 l 5 -5 m 177 0 a 12 12 0 0 0 12 -12 v 0"/>
<g class="sequence">
<g class="nonterminal">
<rect height="22" width="116" x="59" y="406"/>
<text x="117" y="422">
Precedence13</text>
</g>
</g>
</g>
<path d=" M 569 21 h 20 m -10 -10 v 20 m 10 -20 v 20"/>
<path d=" M 25 21 h 10"/>
<path d=" M 559 21 h 10"/>
</g>
</svg>
