<svg class="railroad" viewBox="0 0 853 136" xmlns="http://www.w3.org/2000/svg" xmlns:xlink="http://www.w3.org/1999/xlink">
<style type="text/css">

svg.railroad {
  background-color: rgba(238, 238, 238, .91);
  background-size: 15px 15px;
  background-image: linear-gradient(to right, rgba(25, 25, 225, .65) 1px, transparent 1px),
                    linear-gradient(to bottom, rgba(25, 25, 225, .65) 1px, transparent 1px);
}

svg.railroad path {
  stroke-width: 3px;
  stroke: black;
  fill: transparent;
}

svg.railroad .debug {
  stroke-width: 1px;
  stroke: red;
}

svg.railroad text {
  font: 14px monospace;
  text-anchor: middle;
}

svg.railroad .nonterminal text {
  font-weight: bold;
}

svg.railroad text.comment {
  font: italic 12px monospace;
}

svg.railroad rect {
  stroke-width: 3px;
  stroke: black;
  fill:rgba(0, 0, 90, 0%);
}

svg.railroad .terminal rect {
  fill: aquamarine;  
}

svg.railroad .nonterminal rect {
  fill: orange;  
}

svg.railroad g.labeledbox &gt; rect {
  border-radius: 25px;
  border: 2px solid #73AD21;
  stroke-width: 1.5px;
  stroke: grey;
  stroke-dasharray: 5px;
  fill:rgba(150, 150, 150, 25%);
}

</style>
<g class="sequence">
<path d=" M 10 34 a 5 5 0 0 1 5 -5 a 5 5 0 0 1 5 5 a 5 5 0 0 1 -5 5 a 5 5 0 0 1 -5 -5 m 10 0 h 5"/>
<g class="choice">
<path d=" M 35 34 h 24 m 730 0 h 24"/>
<g class="sequence">
<g class="nonterminal">
<rect height="22" width="108" x="59" y="23"/>
<text x="113" y="39">
Precedence0</text>
</g>
<g class="repeat">
<path d=" M 177 34 h 12 m 0 0 h 168 m -81 0 l -5 -5 m 0 10 l 5 -5 m 81 0 m -12 0 a 12 12 0 0 1 12 12 v 0 a 12 12 0 0 1 -12 12 m -156 0 h 0 a 12 12 0 0 1 -12 -12 v 0 a 12 12 0 0 1 12 -12"/>
<g class="sequence">
<g class="nonterminal">
<rect height="22" width="156" x="189" y="47"/>
<text x="267" y="63">
VariableAttribute</text>
</g>
</g>
<g/>
</g>
<g class="nonterminal">
<rect height="22" width="156" x="367" y="23"/>
<text x="445" y="39">
IdentifierOrError</text>
</g>
<g class="optional">
<path d=" M 533 34 h 24 m -24 0 a 12 12 0 0 0 12 -12 v 0 a 12 12 0 0 1 12 -12 h 154 m -74 0 l -5 -5 m 0 10 l 5 -5 m 74 0 a 12 12 0 0 1 12 12 v 0 a 12 12 0 0 0 12 12 h -24"/>
<g class="sequence">
<g class="sequence">
<g class="terminal">
<rect height="22" rx="10" ry="10" width="44" x="557" y="23"/>
<text x="579" y="39">
&quot;=&quot;</text>
</g>
<g class="choice">
<path d=" M 611 34 h 0 m 100 0 h 0"/>
<g class="nonterminal">
<rect height="22" width="100" x="611" y="23"/>
<text x="661" y="39">
Expression</text>
</g>
</g>
<path d=" M 601 34 h 10"/>
</g>
</g>
</g>
<g class="terminal">
<rect height="22" rx="10" ry="10" width="44" x="745" y="23"/>
<text x="767" y="39">
&quot;;&quot;</text>
</g>
<path d=" M 167 34 h 10"/>
<path d=" M 357 34 h 10"/>
<path d=" M 523 34 h 10"/>
<path d=" M 735 34 h 10"/>
</g>
<path d=" M 35 34 a 12 12 0 0 1 12 12 v 33 m 754 0 v -33 a 12 12 0 0 1 12 -12"/>
<path d=" M 47 79 v 0 a 12 12 0 0 0 12 12 m 462 0 h 268 m -131 0 l -5 -5 m 0 10 l 5 -5 m 131 0 a 12 12 0 0 0 12 -12 v 0"/>
<g class="sequence">
<g class="nonterminal">
<rect height="22" width="108" x="59" y="80"/>
<text x="113" y="96">
Precedence0</text>
</g>
<g class="repeat">
<path d=" M 177 91 h 12 m 0 0 h 168 m -81 0 l -5 -5 m 0 10 l 5 -5 m 81 0 m -12 0 a 12 12 0 0 1 12 12 v 0 a 12 12 0 0 1 -12 12 m -156 0 h 0 a 12 12 0 0 1 -12 -12 v 0 a 12 12 0 0 1 12 -12"/>
<g class="sequence">
<g class="nonterminal">
<rect height="22" width="156" x="189" y="104"/>
<text x="267" y="120">
VariableAttribute</text>
</g>
</g>
<g/>
</g>
<g class="nonterminal">
<rect height="22" width="100" x="367" y="80"/>
<text x="417" y="96">
Identifier</text>
</g>
<g class="terminal">
<rect height="22" rx="10" ry="10" width="44" x="477" y="80"/>
<text x="499" y="96">
&quot;;&quot;</text>
</g>
<path d=" M 167 91 h 10"/>
<path d=" M 357 91 h 10"/>
<path d=" M 467 91 h 10"/>
</g>
</g>
<path d=" M 823 34 h 20 m -10 -10 v 20 m 10 -20 v 20"/>
<path d=" M 25 34 h 10"/>
<path d=" M 813 34 h 10"/>
</g>
</svg>
